<mxfile host="app.diagrams.net" agent="Mozilla/5.0 (Windows NT 10.0; Win64; x64) AppleWebKit/537.36 (KHTML, like Gecko) Chrome/135.0.0.0 Safari/537.36 Edg/135.0.0.0" version="26.2.9">
  <diagram name="Page-1" id="Lx6FRDe1Ka3VdzhiQCxG">
    <mxGraphModel dx="511" dy="530" grid="1" gridSize="10" guides="1" tooltips="1" connect="1" arrows="1" fold="1" page="1" pageScale="1" pageWidth="850" pageHeight="1100" math="0" shadow="0">
      <root>
        <mxCell id="0" />
        <mxCell id="1" parent="0" />
        <mxCell id="XGeD_76el78VxMpuCNHe-1" value="Phòng" style="whiteSpace=wrap;html=1;align=center;" vertex="1" parent="1">
          <mxGeometry x="130" y="130" width="100" height="40" as="geometry" />
        </mxCell>
        <mxCell id="XGeD_76el78VxMpuCNHe-2" value="Khách Trọ" style="whiteSpace=wrap;html=1;align=center;" vertex="1" parent="1">
          <mxGeometry x="260" y="130" width="100" height="40" as="geometry" />
        </mxCell>
        <mxCell id="XGeD_76el78VxMpuCNHe-3" value="Đợt thuê" style="whiteSpace=wrap;html=1;align=center;" vertex="1" parent="1">
          <mxGeometry x="130" y="210" width="100" height="40" as="geometry" />
        </mxCell>
        <mxCell id="XGeD_76el78VxMpuCNHe-4" value="Dịch vụ" style="whiteSpace=wrap;html=1;align=center;" vertex="1" parent="1">
          <mxGeometry x="260" y="210" width="100" height="40" as="geometry" />
        </mxCell>
        <mxCell id="XGeD_76el78VxMpuCNHe-6" value="Thanh toán" style="whiteSpace=wrap;html=1;align=center;" vertex="1" parent="1">
          <mxGeometry x="260" y="280" width="100" height="40" as="geometry" />
        </mxCell>
      </root>
    </mxGraphModel>
  </diagram>
</mxfile>
